<svg width="104" height="20" viewBox="0 0 104 20" fill="none" xmlns="http://www.w3.org/2000/svg">
<path fill-rule="evenodd" clip-rule="evenodd" d="M4.30458 11.5071C3.85447 11.8258 3.30176 12.016 2.70479 12.016C1.19514 12.016 0 10.7996 0 9.36483C0 7.89888 1.19514 6.71363 2.70479 6.71363C2.89044 6.71363 3.07182 6.73156 3.24715 6.76572C3.67157 6.84843 4.16504 6.58788 4.24357 6.16608C4.89743 2.65423 8.00472 0 11.8163 0C16.1138 0 19.6054 3.37397 19.6054 7.54704C19.6054 10.9463 17.1868 13.915 13.898 14.8152C13.6094 14.8943 13.4137 15.165 13.4137 15.462C13.4137 17.9179 11.3142 20 8.73015 20C6.14612 20 4.10042 17.9179 4.10042 15.462C4.10042 14.2838 4.55144 13.2115 5.29742 12.4055C5.48879 12.1987 5.52271 11.8855 5.36687 11.6513C5.14558 11.3186 4.63165 11.2755 4.30458 11.5071ZM10.216 6.27367C10.216 5.32086 10.9928 4.5505 11.974 4.5505C12.9552 4.5505 13.7525 5.32086 13.7525 6.27367C13.7525 7.20621 12.9552 7.99684 11.974 7.99684C10.9928 7.99684 10.216 7.20621 10.216 6.27367ZM14.7823 6.27367C14.7823 5.32086 15.5591 4.5505 16.5403 4.5505C17.5215 4.5505 18.3187 5.32086 18.3187 6.27367C18.3187 7.20621 17.5215 7.99684 16.5403 7.99684C15.5591 7.99684 14.7823 7.20621 14.7823 6.27367Z" fill="#141414"/>
<path d="M15.138 17.6307C15.138 16.3208 16.206 15.2617 17.555 15.2617C18.904 15.2617 20 16.3208 20 17.6307C20 18.9128 18.904 19.9998 17.555 19.9998C16.206 19.9998 15.138 18.9128 15.138 17.6307Z" fill="#141414"/>
<path d="M97.6573 18.9982C94.0693 18.9982 91.2915 16.6196 91.2915 12.5154C91.2915 8.38794 94.0925 6.00938 97.6573 6.00938C101.245 6.00938 104 8.38794 104 12.5154C104 16.6196 101.245 18.9982 97.6573 18.9982ZM94.5555 12.5154C94.5555 14.964 96.0138 16.1299 97.6573 16.1299C99.3009 16.1299 100.736 14.964 100.736 12.5154C100.736 10.0436 99.3009 8.87764 97.6573 8.87764C96.0138 8.87764 94.5555 10.0436 94.5555 12.5154Z" fill="#141414"/>
<path d="M84.1888 18.9982C80.7629 18.9982 78.0314 16.5963 78.0314 12.4921C78.0314 8.43458 80.8786 6.00938 84.1657 6.00938C87.9389 6.00938 90.5546 8.92428 90.0222 13.3549H81.2258C81.5036 15.3371 82.661 16.3165 84.1888 16.3165C85.3694 16.3165 86.3648 15.7568 86.6657 14.7308H89.9759C89.4204 17.4125 87.2213 18.9982 84.1888 18.9982ZM81.3184 11.1396H86.6657C86.5963 9.5539 85.6009 8.69109 84.1425 8.69109C82.8694 8.69109 81.712 9.46063 81.3184 11.1396Z" fill="#141414"/>
<path d="M69.5387 18.9982C66.7377 18.9982 64.1451 16.6663 64.1451 12.5154C64.1451 8.34128 66.7377 6.00936 69.5387 6.00936C71.1822 6.00936 72.4091 6.63898 73.1498 7.59507V1.27555H76.4137V18.6484H73.2655V17.2959C72.5248 18.2986 71.2748 18.9982 69.5387 18.9982ZM67.4553 12.5154C67.4553 14.9873 68.7748 16.1066 70.3026 16.1066C71.8072 16.1066 73.1498 14.894 73.1498 12.5154C73.1498 10.0203 71.8303 8.90095 70.3026 8.90095C68.7748 8.90095 67.4553 10.0203 67.4553 12.5154Z" fill="#141414"/>
<path d="M59.2677 18.6484V6.35918H62.5316V18.6484H59.2677Z" fill="#141414"/>
<path d="M60.8872 1C59.6988 1 58.758 1.94774 58.758 3.11993C58.758 4.26719 59.6988 5.23987 60.8872 5.23987C62.0756 5.23987 63.0411 4.26719 63.0411 3.11993C63.0411 1.94774 62.0756 1 60.8872 1Z" fill="#141414"/>
<path d="M32.8959 18.6484V6.35917H36.0441V7.8516C36.5765 7.01211 37.8033 6.00938 39.7709 6.00938C42.5719 6.00938 44.2154 7.96819 44.2154 10.6266V18.6484H40.9515V11.3028C40.9515 9.99697 40.1645 8.90097 38.7524 8.90097C37.3172 8.90097 36.1598 10.0436 36.1598 11.6526V18.6484H32.8959Z" fill="#141414"/>
<path d="M27.5097 18.6484V6.35918H30.7736V18.6484H27.5097Z" fill="#141414"/>
<path d="M29.1292 1C27.9408 1 27 1.94774 27 3.11993C27 4.26719 27.9408 5.23987 29.1292 5.23987C30.3175 5.23987 31.2831 4.26719 31.2831 3.11993C31.2831 1.94774 30.3175 1 29.1292 1Z" fill="#141414"/>
<path d="M51.2959 19C49.9092 19 48.6775 18.1074 48.2366 16.783L44.7665 6.35918H48.1694L51.0446 16.0575C51.0821 16.184 51.1976 16.2706 51.3285 16.2706C51.4595 16.2706 51.575 16.184 51.6124 16.0575L54.4877 6.35918H57.8905L54.4205 16.783C53.9796 18.1074 52.7479 19 51.3612 19H51.2959Z" fill="#141414"/>
</svg>
