<svg width="13396" height="2903" viewBox="0 0 13396 2903" fill="none" xmlns="http://www.w3.org/2000/svg">
<path fill-rule="evenodd" clip-rule="evenodd" d="M1446.56 2902.38C1377.03 2904.31 1309.44 2898.51 1239.91 2888.84C1052.58 2861.75 876.829 2801.77 714.6 2703.1C355.38 2486.41 125.556 2171.05 30.923 1757.03C9.67874 1664.16 0.0222833 1569.36 0.0222833 1474.56C-1.90901 1095.35 121.694 762.581 372.762 480.112C590.998 236.338 861.378 87.3643 1180.04 25.4533C1268.88 8.04086 1357.72 -1.63273 1446.56 2.23671C1446.56 147.341 1446.56 290.51 1446.56 435.613C1442.7 437.548 1438.83 439.483 1434.97 443.352C1382.83 480.112 1330.68 518.806 1280.47 559.435C1166.52 652.302 1058.37 750.972 967.599 868.99C845.928 1025.7 764.814 1197.89 753.226 1401.04C747.432 1497.77 759.02 1592.57 789.921 1683.51C865.241 1909.87 1098.93 2143.97 1427.25 2149.77C1446.56 2149.77 1450.42 2153.64 1450.42 2174.92C1448.49 2273.6 1448.49 2470.94 1448.49 2470.94C1448.49 2470.94 1448.49 2482.54 1448.49 2488.35C1446.56 2625.71 1446.56 2763.08 1446.56 2902.38Z" fill="#0099FF"/>
<path fill-rule="evenodd" clip-rule="evenodd" d="M1446.52 433.673C1446.52 433.673 1446.52 145.4 1446.52 0.29629C1525.7 -1.63843 1602.96 6.10044 1680.21 17.7087C1825.05 40.9254 1964.11 83.4891 2095.44 151.204C2367.75 292.439 2582.12 493.649 2726.97 768.379C2810.01 927.026 2864.09 1095.35 2885.33 1271.41C2910.44 1478.42 2891.13 1683.5 2829.33 1882.78C2757.87 2109.14 2638.13 2308.41 2470.11 2476.73C2265.39 2679.88 2022.05 2811.44 1740.08 2871.42C1643.51 2890.76 1545.02 2902.37 1446.52 2900.44C1446.52 2761.14 1446.52 2623.77 1446.52 2484.47C1446.52 2478.67 1446.52 2469 1446.52 2469C1446.52 2469 1452.32 2465.13 1454.25 2463.19C1604.89 2356.78 1747.8 2240.7 1871.41 2101.4C1952.52 2010.47 2022.05 1913.73 2070.33 1801.52C2137.92 1642.87 2164.96 1480.35 2130.2 1308.17C2068.4 994.741 1788.36 760.64 1465.83 752.901C1444.59 752.901 1446.52 735.489 1446.52 735.489V433.673Z" fill="#0561E2"/>
<path d="M4760.74 1902.39C4760.74 1982.31 4747.63 2058.43 4723.28 2132.65C4698.94 2206.86 4659.61 2271.56 4610.92 2328.65C4560.35 2385.74 4498.55 2429.51 4423.64 2463.76C4348.73 2496.11 4260.71 2513.24 4163.33 2513.24C4006.01 2513.24 3876.79 2475.18 3777.54 2400.96C3676.41 2326.75 3610.86 2208.76 3579.02 2047.01L3910.5 1967.09C3921.74 2033.69 3947.96 2086.97 3991.03 2126.94C4032.23 2166.9 4084.67 2185.93 4146.47 2185.93C4247.6 2185.93 4316.89 2151.67 4352.47 2081.26C4388.06 2012.76 4406.78 1915.71 4406.78 1793.92V440.907H4760.74V1902.39Z" fill="#1C1C1C"/>
<path d="M6712.09 1719.7C6712.09 1841.49 6691.49 1951.86 6650.29 2048.91C6609.09 2147.87 6552.9 2229.7 6481.74 2298.2C6410.57 2366.71 6326.3 2419.99 6228.92 2456.15C6131.53 2494.21 6024.79 2511.34 5910.55 2511.34C5796.31 2511.34 5689.56 2492.31 5594.05 2456.15C5496.67 2419.99 5412.39 2366.71 5339.35 2298.2C5266.32 2229.7 5210.13 2145.97 5170.8 2048.91C5129.6 1951.86 5110.88 1841.49 5110.88 1719.7V440.907H5464.83V1708.28C5464.83 1757.76 5472.32 1809.14 5487.3 1864.33C5502.28 1917.61 5526.63 1968.99 5562.21 2014.66C5595.92 2060.33 5642.74 2098.39 5700.8 2126.94C5756.98 2157.38 5828.15 2170.7 5912.42 2170.7C5996.69 2170.7 6067.86 2155.48 6124.04 2126.94C6180.22 2098.39 6227.04 2060.33 6262.63 2014.66C6296.34 1968.99 6322.56 1919.51 6337.54 1864.33C6352.52 1809.14 6360.01 1757.76 6360.01 1708.28V440.907H6713.96V1719.7H6712.09Z" fill="#1C1C1C"/>
<path d="M8053.01 874.779C8015.55 819.593 7964.99 779.631 7903.19 752.99C7839.51 726.348 7773.97 714.93 7704.68 714.93C7663.48 714.93 7624.15 720.639 7584.82 730.154C7545.49 739.669 7511.78 754.893 7481.82 775.825C7449.98 796.758 7425.63 823.399 7406.91 857.653C7388.18 891.906 7378.81 929.965 7378.81 975.637C7378.81 1044.14 7401.29 1097.43 7449.98 1131.68C7496.8 1167.84 7554.85 1200.19 7624.15 1224.93C7693.44 1251.57 7768.35 1278.21 7850.75 1302.95C7933.15 1327.69 8008.06 1361.94 8079.23 1405.71C8148.52 1449.48 8206.58 1508.47 8253.4 1578.88C8300.21 1651.19 8324.56 1748.24 8324.56 1866.23C8324.56 1974.69 8305.83 2069.84 8266.5 2149.77C8227.18 2231.59 8174.74 2298.2 8107.32 2351.48C8039.9 2404.76 7963.12 2444.73 7875.1 2471.37C7787.08 2498.01 7693.44 2511.33 7597.93 2511.33C7474.33 2511.33 7354.47 2490.4 7242.1 2448.53C7127.86 2406.67 7028.61 2336.26 6946.21 2237.3L7214.01 1974.69C7257.08 2041.3 7313.27 2092.68 7384.43 2130.74C7455.6 2168.8 7528.64 2185.92 7607.29 2185.92C7648.49 2185.92 7689.69 2180.21 7730.89 2168.8C7772.1 2157.38 7809.55 2140.25 7843.26 2117.42C7876.97 2094.58 7903.19 2066.04 7923.79 2029.88C7944.39 1995.63 7955.63 1953.76 7955.63 1908.09C7955.63 1833.87 7931.28 1776.79 7884.46 1736.82C7837.64 1696.86 7779.59 1662.61 7710.29 1635.97C7641 1609.32 7564.22 1582.68 7481.82 1557.94C7399.41 1533.21 7322.63 1498.95 7255.21 1457.09C7185.92 1415.22 7127.86 1358.13 7081.04 1285.82C7034.23 1213.51 7009.88 1118.36 7009.88 998.472C7009.88 893.809 7030.48 804.37 7073.55 728.251C7114.75 652.132 7170.94 589.334 7240.23 537.954C7307.65 488.477 7386.31 450.418 7474.33 425.679C7562.35 400.941 7652.24 389.523 7744 389.523C7848.88 389.523 7950.01 406.65 8049.26 437.097C8146.65 469.448 8236.54 522.731 8315.2 596.946L8053.01 874.779Z" fill="#1C1C1C"/>
<path d="M9289.07 440.907C9384.58 440.907 9476.35 450.422 9566.24 469.452C9654.26 488.481 9732.92 520.832 9800.34 564.6C9867.76 610.271 9922.07 669.263 9961.4 743.479C10000.7 819.598 10021.3 912.843 10021.3 1025.12C10021.3 1152.62 9998.85 1255.38 9955.78 1333.4C9912.7 1411.42 9854.65 1472.32 9781.61 1514.18C9708.57 1556.05 9624.3 1586.49 9526.91 1601.72C9429.53 1616.94 9330.27 1624.55 9225.4 1624.55H8972.58V2461.86H8618.62V440.907H9289.07ZM9187.94 1318.18C9238.51 1318.18 9290.95 1316.27 9345.26 1312.47C9399.57 1308.66 9450.13 1297.24 9495.08 1278.21C9540.02 1259.18 9577.48 1230.64 9607.44 1192.58C9635.53 1154.52 9650.52 1101.24 9650.52 1032.73C9650.52 969.932 9637.41 920.455 9611.19 882.396C9584.97 844.336 9551.26 815.792 9510.06 796.762C9468.86 775.829 9422.04 764.412 9371.47 758.703C9320.91 752.994 9272.22 749.188 9225.4 749.188H8972.58V1318.18H9187.94Z" fill="#1C1C1C"/>
<path d="M10701.1 440.907H11006.4L11864.1 2461.86H11459.6L11274.2 1999.44H10412.7L10232.9 2461.86H9835.89L10701.1 440.907ZM11150.6 1691.16L10843.4 869.075L10532.6 1691.16H11150.6Z" fill="#1C1C1C"/>
<path d="M12294.8 1597.91L11547.6 440.907H11991.4L12480.2 1245.86L12974.6 440.907H13396L12648.8 1597.91V2463.76H12294.8V1597.91Z" fill="#1C1C1C"/>
</svg>
