<svg width="1616" height="746" viewBox="0 0 1616 746" fill="none" xmlns="http://www.w3.org/2000/svg">
<rect x="316.613" y="254.527" width="33.3066" height="233.146" stroke="#D2451A" stroke-width="15.9872"/>
<rect width="33.3066" height="233.146" transform="matrix(-1 0 0 1 416.533 254.527)" stroke="#D2451A" stroke-width="15.9872"/>
<path d="M283.307 496V254.527H250V496" stroke="#D2451A" stroke-width="15.9872"/>
<path d="M449.84 496V254.527H483.146V496" stroke="#D2451A" stroke-width="15.9872"/>
<path d="M858.046 246C908.632 246 949.639 287.008 949.639 337.593V404.206C949.639 454.792 908.632 495.799 858.046 495.799C807.461 495.799 766.453 454.792 766.453 404.206V337.593C766.453 287.008 807.461 246 858.046 246ZM816.413 404.206C816.413 427.2 835.053 445.839 858.046 445.839C881.04 445.839 899.679 427.2 899.679 404.206V337.593C899.679 314.6 881.04 295.96 858.046 295.96C835.053 295.96 816.413 314.6 816.413 337.593V404.206Z" fill="#D2451A"/>
<path d="M1066.21 246C1116.8 246 1157.81 287.008 1157.81 337.593V404.206C1157.81 454.792 1116.8 495.799 1066.21 495.799C1015.63 495.799 974.621 454.792 974.621 404.206V337.593C974.621 287.008 1015.63 246 1066.21 246ZM1024.58 404.206C1024.58 427.2 1043.22 445.839 1066.21 445.839C1089.21 445.839 1107.85 427.2 1107.85 404.206V337.593C1107.85 314.6 1089.21 295.96 1066.21 295.96C1043.22 295.96 1024.58 314.6 1024.58 337.593V404.206Z" fill="#D2451A"/>
<path d="M649.88 246C700.466 246 741.473 287.008 741.473 337.593V487.473H691.513V337.593C691.513 314.6 672.874 295.96 649.88 295.96C626.887 295.96 608.247 314.6 608.247 337.593V487.473H558.287V337.593C558.287 287.008 599.295 246 649.88 246Z" fill="#D2451A"/>
<path d="M1274.38 246C1324.96 246 1365.97 287.008 1365.97 337.593V487.473H1316.01V337.593C1316.01 314.6 1297.37 295.96 1274.38 295.96C1251.38 295.96 1232.75 314.6 1232.75 337.593V487.473H1182.79V337.593C1182.79 287.008 1223.79 246 1274.38 246Z" fill="#D2451A"/>
</svg>
